<svg viewBox="0 0 512 512" xmlns="http://www.w3.org/2000/svg">
    <g>
        <path fill="#FFAC32"
              d="m360.5 7.5c14.152-1.3492 20.318 4.9841 18.5 19-31.578 62.156-63.411 124.16-95.5 186 55.997 0.833 112 1.333 168 1.5 9.282 2.821 12.782 8.988 10.5 18.5-2.075 4.079-4.908 7.579-8.5 10.5-97.853 84.097-195.52 168.43-293 253-3.057 2.723-6.39 5.056-10 7-14.167 1.833-20.333-4.333-18.5-18.5 31.578-62.157 63.411-124.16 95.5-186-55.997-0.833-112-1.333-168-1.5-8.8006-3.096-12.301-9.263-10.5-18.5 2.0751-4.079 4.9084-7.579 8.5-10.5 100.9-87.072 201.9-173.91 303-260.5z"/>
    </g>
</svg>
